<svg width="91" height="91" viewBox="0 0 91 91" fill="none" xmlns="http://www.w3.org/2000/svg">
<mask id="path-1-outside-1_167_436" maskUnits="userSpaceOnUse" x="0.544678" y="0.5" width="91" height="91" fill="black">
<rect fill="white" x="0.544678" y="0.5" width="91" height="91"/>
<path d="M45.7408 90.1204C32.4415 90.1204 19.1422 90.0955 5.84287 90.1428C3.49476 90.1515 1.77911 88.3587 1.56746 86.4563C1.32344 84.2526 3.07145 82.0452 5.2851 81.9381C5.86528 81.9107 6.44795 81.9007 7.02688 81.9344C7.45517 81.9593 7.5859 81.7787 7.55478 81.3928C7.54482 81.2695 7.55353 81.1438 7.55353 81.0193C7.55353 66.4961 7.54979 51.9717 7.56722 37.4485C7.56847 36.7562 7.43525 36.3728 6.72434 36.0553C4.49326 35.0605 3.02538 33.3735 2.56846 30.9121C2.51617 30.6295 2.50123 30.3357 2.50123 30.0468C2.49625 27.8481 2.51119 25.6481 2.48878 23.4494C2.4838 22.9452 2.64938 22.6003 3.0204 22.2679C7.71538 18.0622 12.3954 13.8404 17.0941 9.6384C17.5162 9.26116 17.7042 8.88267 17.693 8.30747C17.6581 6.35777 17.678 4.40682 17.6818 2.45711C17.683 1.69889 17.8785 1.50093 18.6367 1.50093C36.397 1.49969 54.1572 1.49969 71.9174 1.50093C72.7827 1.50093 72.9409 1.65532 72.9433 2.50816C72.9496 4.47903 72.9583 6.4499 72.9408 8.42077C72.9371 8.8503 73.0591 9.14164 73.399 9.42799C78.3928 13.6374 83.3667 17.868 88.3629 22.0749C88.8971 22.5244 89.156 22.9863 89.1361 23.7109C89.0838 25.6183 89.0875 27.5281 89.1261 29.4367C89.1921 32.7273 87.5325 34.8601 84.6602 36.1748C84.2095 36.3815 84.0552 36.5969 84.0552 37.0837C84.0689 51.7737 84.0714 66.4625 84.0552 81.1525C84.0539 81.7837 84.2195 81.9767 84.852 81.9431C85.5915 81.9045 86.341 81.8534 87.0781 82.0564C88.9083 82.5606 90.228 84.3136 90.0387 86.2795C89.8159 88.6039 88.2223 90.1104 86.0758 90.1117C72.6296 90.1241 59.1846 90.1191 45.7408 90.1204ZM17.368 32.7024C17.129 33.0772 16.9597 33.3884 16.748 33.6661C14.9701 35.9955 12.5847 36.9891 9.69248 36.8235C9.23307 36.7973 9.04257 36.8646 9.04382 37.3962C9.05876 52.0439 9.05876 66.6915 9.04756 81.3392C9.04756 81.7937 9.15463 81.9505 9.63147 81.9418C11.2488 81.9144 12.8673 81.9331 14.4858 81.9331C36.8925 81.9331 59.3004 81.9331 81.7071 81.9381C82.2076 81.9381 82.5798 82.0028 82.5773 81.2396C82.5512 66.6542 82.5549 52.0688 82.5699 37.4833C82.5699 36.933 82.4416 36.7687 81.8814 36.8197C79.9254 36.9965 78.15 36.4637 76.5502 35.3369C75.6587 34.7094 74.9765 33.884 74.3901 32.9191C74.2805 33.071 74.2046 33.1668 74.1386 33.2677C70.9799 38.1382 63.5783 38.0747 60.5243 33.1407C60.2616 32.7149 60.1657 32.7771 59.9304 33.1506C57.5935 36.8658 52.5312 38.0075 48.775 35.6917C47.586 34.9597 46.6696 33.9773 45.9575 32.685C44.3253 35.4627 41.9398 36.8434 38.8111 36.8484C35.6711 36.8533 33.2894 35.4664 31.6659 32.7161C30.0399 35.4465 27.6669 36.8459 24.5257 36.8446C21.3845 36.8459 19.004 35.4602 17.368 32.7024ZM45.8156 88.6562C56.9971 88.6562 68.1786 88.6562 79.3614 88.6562C81.5601 88.6562 83.7601 88.6699 85.9588 88.6513C87.794 88.6363 89.0216 86.8422 88.4028 85.1191C88.0031 84.0061 87.0395 83.3997 85.6612 83.3997C60.6637 83.3997 35.6649 83.3997 10.6673 83.3997C9.02888 83.3997 7.38918 83.3972 5.75073 83.401C4.68624 83.4035 3.85955 83.8467 3.35905 84.7954C2.39291 86.6306 3.7089 88.6537 5.86154 88.6537C19.1783 88.6575 32.4976 88.6562 45.8156 88.6562ZM45.3088 8.72206C48.338 8.72206 51.3671 8.72206 54.3962 8.72206C59.8532 8.72206 65.3101 8.71335 70.7658 8.73451C71.3373 8.737 71.5053 8.57889 71.4892 8.00618C71.4481 6.59681 71.4755 5.18496 71.4755 3.77434C71.4755 2.97131 71.4742 2.97006 70.6724 2.97006C61.2738 2.97006 51.8751 2.97006 42.4764 2.97006C34.9241 2.97006 27.3718 2.97629 19.8195 2.95761C19.2692 2.95637 19.1123 3.09705 19.1285 3.64984C19.1683 5.05921 19.141 6.47106 19.1422 7.88167C19.1422 8.72455 19.1434 8.72455 19.9751 8.72455C28.4201 8.72331 36.8651 8.72331 45.3088 8.72206ZM52.7454 22.3239V22.3214C54.6751 22.3214 56.6049 22.3152 58.5335 22.3264C58.9443 22.3289 59.08 22.2492 58.9493 21.796C57.8736 18.0834 56.8191 14.3645 55.7645 10.6456C55.6724 10.3207 55.5155 10.1837 55.1545 10.185C52.4577 10.1999 49.7598 10.1999 47.0631 10.185C46.6472 10.1825 46.5352 10.3331 46.5364 10.729C46.5476 14.4006 46.5489 18.0734 46.5327 21.745C46.5302 22.2194 46.6896 22.3376 47.144 22.3314C49.0103 22.3102 50.8778 22.3239 52.7454 22.3239ZM38.7737 22.3202C40.6612 22.3202 42.5499 22.309 44.4373 22.3289C44.8967 22.3339 45.0872 22.243 45.0835 21.7201C45.0598 18.0896 45.0636 14.4591 45.0797 10.8286C45.0822 10.3568 44.9664 10.18 44.4572 10.185C41.8228 10.2099 39.1883 10.2061 36.5538 10.185C36.1181 10.1812 35.9425 10.3207 35.8267 10.7315C34.7971 14.3931 33.7588 18.0523 32.6893 21.7039C32.5299 22.248 32.6756 22.3339 33.1736 22.3289C35.0399 22.309 36.9062 22.3214 38.7737 22.3202ZM53.1139 23.8578C51.2065 23.8578 49.2991 23.8678 47.3918 23.8503C46.9697 23.8466 46.8103 23.9674 46.8153 24.4093C46.8365 26.2545 46.8178 28.0996 46.8315 29.9447C46.839 30.876 47.1079 31.7376 47.6071 32.5269C49.1609 34.9896 52.5237 36.0578 55.4719 34.951C57.7279 34.1043 59.2008 32.5381 59.3328 30.0418C59.4348 28.1195 59.3564 26.1872 59.3701 24.2587C59.3738 23.7943 59.0626 23.8553 58.775 23.8541C56.8875 23.8566 55.0013 23.8566 53.1139 23.8578ZM10.2652 23.8566C8.35781 23.8566 6.45044 23.8703 4.54431 23.8466C4.07868 23.8404 3.94296 23.9811 3.94919 24.4442C3.97284 26.2682 3.94421 28.0921 3.96413 29.9161C3.97533 30.932 4.27788 31.8745 4.86802 32.7099C6.52888 35.0605 9.74851 36.003 12.5896 34.9808C14.4995 34.2936 16.6509 32.4435 16.4828 29.4529C16.3894 27.7995 16.4492 26.1374 16.4754 24.4791C16.4828 24.0047 16.3683 23.8354 15.8616 23.8441C13.9965 23.874 12.1302 23.8553 10.2652 23.8566ZM81.3921 23.8566C79.4847 23.8566 77.5773 23.8665 75.6699 23.8491C75.2691 23.8454 75.1321 23.9599 75.1358 24.372C75.157 26.3205 75.1483 28.2689 75.152 30.2186C75.1533 30.8536 75.3288 31.4462 75.6077 32.009C76.8876 34.5849 80.0263 35.9171 83.0168 35.1937C85.4458 34.6061 87.8176 32.5941 87.6657 29.2774C87.596 27.746 87.6545 26.2096 87.6533 24.6758C87.6533 23.859 87.652 23.8578 86.8639 23.8578C85.04 23.8553 83.216 23.8566 81.3921 23.8566ZM38.8098 23.8566C36.9236 23.8566 35.0374 23.8715 33.1524 23.8454C32.6868 23.8391 32.5523 23.9711 32.5586 24.4367C32.5822 26.3229 32.5673 28.2092 32.5673 30.0941C32.5673 30.9233 32.8125 31.6877 33.2371 32.3887C34.9876 35.2796 39.0426 36.2644 42.1079 34.5438C43.8708 33.554 44.9752 32.0899 45.0548 30.0319C45.1271 28.1693 45.0536 26.3018 45.0785 24.4367C45.0847 23.9562 44.9166 23.8429 44.4672 23.8478C42.581 23.869 40.696 23.8566 38.8098 23.8566ZM67.403 23.8553C65.5168 23.8553 63.6306 23.8678 61.7444 23.8466C61.2725 23.8416 61.092 23.9549 61.0994 24.4654C61.1281 26.2893 61.1007 28.1133 61.1144 29.9372C61.1206 30.7328 61.3198 31.4898 61.6995 32.1957C63.2247 35.0294 67.1552 36.2308 70.203 34.7766C72.2648 33.7931 73.5758 32.2592 73.6144 29.8738C73.6443 28.0498 73.6069 26.2258 73.6293 24.4019C73.6343 23.9586 73.4887 23.8429 73.0616 23.8466C71.1754 23.8678 69.2892 23.8566 67.403 23.8553ZM24.5518 23.8566C22.6656 23.8566 20.7794 23.869 18.8932 23.8478C18.43 23.8429 18.242 23.9412 18.2508 24.4579C18.2831 26.2607 18.2632 28.0647 18.262 29.8675C18.262 31.0291 18.6405 32.06 19.3489 32.9726C21.1529 35.2983 24.7386 36.0889 27.4627 34.7293C29.6303 33.6474 30.8479 31.9604 30.7757 29.4417C30.7271 27.7647 30.7533 26.0839 30.7757 24.4044C30.7819 23.9649 30.64 23.8429 30.2104 23.8466C28.3242 23.8678 26.438 23.8566 24.5518 23.8566ZM24.8568 22.3202C26.702 22.3202 28.5458 22.3077 30.391 22.3302C30.813 22.3351 31.0122 22.2156 31.1305 21.796C32.1651 18.117 33.2134 14.4405 34.2779 10.7701C34.4049 10.3331 34.3626 10.18 33.8708 10.1837C31.6534 10.2012 29.4348 10.1962 27.2174 10.1862C26.9174 10.185 26.7231 10.2771 26.5526 10.5323C24.0364 14.3035 21.5102 18.0685 18.9878 21.8359C18.9106 21.9517 18.7562 22.0637 18.8172 22.2106C18.8994 22.4049 19.1073 22.319 19.2592 22.319C21.1255 22.3239 22.9906 22.3227 24.8568 22.3202ZM66.7207 22.3214C68.6069 22.3214 70.4931 22.3227 72.3806 22.3202C72.52 22.3202 72.6968 22.3787 72.784 22.2455C72.8823 22.0973 72.728 21.9816 72.6508 21.867C70.1259 18.1021 67.5972 14.3396 65.0773 10.5697C64.898 10.3008 64.71 10.1825 64.3751 10.185C62.1565 10.1999 59.9391 10.1999 57.7205 10.1875C57.2847 10.185 57.2013 10.2933 57.3283 10.7303C58.399 14.4218 59.4461 18.1195 60.4894 21.8185C60.5965 22.1957 60.7782 22.3364 61.1853 22.3314C63.0305 22.309 64.8756 22.3227 66.7207 22.3214ZM5.27638 22.2654C5.51542 22.3015 5.61129 22.3277 5.70716 22.3277C9.29656 22.3264 12.886 22.3177 16.4754 22.3302C16.8401 22.3314 16.9808 22.1285 17.1439 21.8857C19.3016 18.6648 21.4617 15.4464 23.6193 12.2268C24.0501 11.5831 24.4734 10.9345 24.9639 10.1912C22.9694 10.1912 21.1243 10.1999 19.2804 10.185C18.882 10.1812 18.5819 10.2933 18.2831 10.5635C15.7781 12.8331 13.2595 15.0891 10.7458 17.3488C8.95792 18.9549 7.17006 20.5622 5.27638 22.2654ZM86.1991 22.2928C86.0472 22.1285 85.9887 22.05 85.914 21.9878C81.3609 18.1319 76.8066 14.2798 72.2586 10.419C72.0494 10.241 71.839 10.1862 71.5813 10.1875C70.1308 10.1924 68.6791 10.1862 67.2287 10.1924C67.078 10.1937 66.8676 10.1115 66.7879 10.3032C66.7282 10.4477 66.8788 10.5647 66.9573 10.6817C69.4585 14.4156 71.9648 18.1444 74.4561 21.8844C74.6789 22.2181 74.9254 22.3326 75.3201 22.3314C78.7613 22.3202 82.2013 22.3289 85.6426 22.3302C85.7845 22.3302 85.9277 22.3115 86.1991 22.2928Z"/>
</mask>
<path d="M45.7408 90.1204C32.4415 90.1204 19.1422 90.0955 5.84287 90.1428C3.49476 90.1515 1.77911 88.3587 1.56746 86.4563C1.32344 84.2526 3.07145 82.0452 5.2851 81.9381C5.86528 81.9107 6.44795 81.9007 7.02688 81.9344C7.45517 81.9593 7.5859 81.7787 7.55478 81.3928C7.54482 81.2695 7.55353 81.1438 7.55353 81.0193C7.55353 66.4961 7.54979 51.9717 7.56722 37.4485C7.56847 36.7562 7.43525 36.3728 6.72434 36.0553C4.49326 35.0605 3.02538 33.3735 2.56846 30.9121C2.51617 30.6295 2.50123 30.3357 2.50123 30.0468C2.49625 27.8481 2.51119 25.6481 2.48878 23.4494C2.4838 22.9452 2.64938 22.6003 3.0204 22.2679C7.71538 18.0622 12.3954 13.8404 17.0941 9.6384C17.5162 9.26116 17.7042 8.88267 17.693 8.30747C17.6581 6.35777 17.678 4.40682 17.6818 2.45711C17.683 1.69889 17.8785 1.50093 18.6367 1.50093C36.397 1.49969 54.1572 1.49969 71.9174 1.50093C72.7827 1.50093 72.9409 1.65532 72.9433 2.50816C72.9496 4.47903 72.9583 6.4499 72.9408 8.42077C72.9371 8.8503 73.0591 9.14164 73.399 9.42799C78.3928 13.6374 83.3667 17.868 88.3629 22.0749C88.8971 22.5244 89.156 22.9863 89.1361 23.7109C89.0838 25.6183 89.0875 27.5281 89.1261 29.4367C89.1921 32.7273 87.5325 34.8601 84.6602 36.1748C84.2095 36.3815 84.0552 36.5969 84.0552 37.0837C84.0689 51.7737 84.0714 66.4625 84.0552 81.1525C84.0539 81.7837 84.2195 81.9767 84.852 81.9431C85.5915 81.9045 86.341 81.8534 87.0781 82.0564C88.9083 82.5606 90.228 84.3136 90.0387 86.2795C89.8159 88.6039 88.2223 90.1104 86.0758 90.1117C72.6296 90.1241 59.1846 90.1191 45.7408 90.1204ZM17.368 32.7024C17.129 33.0772 16.9597 33.3884 16.748 33.6661C14.9701 35.9955 12.5847 36.9891 9.69248 36.8235C9.23307 36.7973 9.04257 36.8646 9.04382 37.3962C9.05876 52.0439 9.05876 66.6915 9.04756 81.3392C9.04756 81.7937 9.15463 81.9505 9.63147 81.9418C11.2488 81.9144 12.8673 81.9331 14.4858 81.9331C36.8925 81.9331 59.3004 81.9331 81.7071 81.9381C82.2076 81.9381 82.5798 82.0028 82.5773 81.2396C82.5512 66.6542 82.5549 52.0688 82.5699 37.4833C82.5699 36.933 82.4416 36.7687 81.8814 36.8197C79.9254 36.9965 78.15 36.4637 76.5502 35.3369C75.6587 34.7094 74.9765 33.884 74.3901 32.9191C74.2805 33.071 74.2046 33.1668 74.1386 33.2677C70.9799 38.1382 63.5783 38.0747 60.5243 33.1407C60.2616 32.7149 60.1657 32.7771 59.9304 33.1506C57.5935 36.8658 52.5312 38.0075 48.775 35.6917C47.586 34.9597 46.6696 33.9773 45.9575 32.685C44.3253 35.4627 41.9398 36.8434 38.8111 36.8484C35.6711 36.8533 33.2894 35.4664 31.6659 32.7161C30.0399 35.4465 27.6669 36.8459 24.5257 36.8446C21.3845 36.8459 19.004 35.4602 17.368 32.7024ZM45.8156 88.6562C56.9971 88.6562 68.1786 88.6562 79.3614 88.6562C81.5601 88.6562 83.7601 88.6699 85.9588 88.6513C87.794 88.6363 89.0216 86.8422 88.4028 85.1191C88.0031 84.0061 87.0395 83.3997 85.6612 83.3997C60.6637 83.3997 35.6649 83.3997 10.6673 83.3997C9.02888 83.3997 7.38918 83.3972 5.75073 83.401C4.68624 83.4035 3.85955 83.8467 3.35905 84.7954C2.39291 86.6306 3.7089 88.6537 5.86154 88.6537C19.1783 88.6575 32.4976 88.6562 45.8156 88.6562ZM45.3088 8.72206C48.338 8.72206 51.3671 8.72206 54.3962 8.72206C59.8532 8.72206 65.3101 8.71335 70.7658 8.73451C71.3373 8.737 71.5053 8.57889 71.4892 8.00618C71.4481 6.59681 71.4755 5.18496 71.4755 3.77434C71.4755 2.97131 71.4742 2.97006 70.6724 2.97006C61.2738 2.97006 51.8751 2.97006 42.4764 2.97006C34.9241 2.97006 27.3718 2.97629 19.8195 2.95761C19.2692 2.95637 19.1123 3.09705 19.1285 3.64984C19.1683 5.05921 19.141 6.47106 19.1422 7.88167C19.1422 8.72455 19.1434 8.72455 19.9751 8.72455C28.4201 8.72331 36.8651 8.72331 45.3088 8.72206ZM52.7454 22.3239V22.3214C54.6751 22.3214 56.6049 22.3152 58.5335 22.3264C58.9443 22.3289 59.08 22.2492 58.9493 21.796C57.8736 18.0834 56.8191 14.3645 55.7645 10.6456C55.6724 10.3207 55.5155 10.1837 55.1545 10.185C52.4577 10.1999 49.7598 10.1999 47.0631 10.185C46.6472 10.1825 46.5352 10.3331 46.5364 10.729C46.5476 14.4006 46.5489 18.0734 46.5327 21.745C46.5302 22.2194 46.6896 22.3376 47.144 22.3314C49.0103 22.3102 50.8778 22.3239 52.7454 22.3239ZM38.7737 22.3202C40.6612 22.3202 42.5499 22.309 44.4373 22.3289C44.8967 22.3339 45.0872 22.243 45.0835 21.7201C45.0598 18.0896 45.0636 14.4591 45.0797 10.8286C45.0822 10.3568 44.9664 10.18 44.4572 10.185C41.8228 10.2099 39.1883 10.2061 36.5538 10.185C36.1181 10.1812 35.9425 10.3207 35.8267 10.7315C34.7971 14.3931 33.7588 18.0523 32.6893 21.7039C32.5299 22.248 32.6756 22.3339 33.1736 22.3289C35.0399 22.309 36.9062 22.3214 38.7737 22.3202ZM53.1139 23.8578C51.2065 23.8578 49.2991 23.8678 47.3918 23.8503C46.9697 23.8466 46.8103 23.9674 46.8153 24.4093C46.8365 26.2545 46.8178 28.0996 46.8315 29.9447C46.839 30.876 47.1079 31.7376 47.6071 32.5269C49.1609 34.9896 52.5237 36.0578 55.4719 34.951C57.7279 34.1043 59.2008 32.5381 59.3328 30.0418C59.4348 28.1195 59.3564 26.1872 59.3701 24.2587C59.3738 23.7943 59.0626 23.8553 58.775 23.8541C56.8875 23.8566 55.0013 23.8566 53.1139 23.8578ZM10.2652 23.8566C8.35781 23.8566 6.45044 23.8703 4.54431 23.8466C4.07868 23.8404 3.94296 23.9811 3.94919 24.4442C3.97284 26.2682 3.94421 28.0921 3.96413 29.9161C3.97533 30.932 4.27788 31.8745 4.86802 32.7099C6.52888 35.0605 9.74851 36.003 12.5896 34.9808C14.4995 34.2936 16.6509 32.4435 16.4828 29.4529C16.3894 27.7995 16.4492 26.1374 16.4754 24.4791C16.4828 24.0047 16.3683 23.8354 15.8616 23.8441C13.9965 23.874 12.1302 23.8553 10.2652 23.8566ZM81.3921 23.8566C79.4847 23.8566 77.5773 23.8665 75.6699 23.8491C75.2691 23.8454 75.1321 23.9599 75.1358 24.372C75.157 26.3205 75.1483 28.2689 75.152 30.2186C75.1533 30.8536 75.3288 31.4462 75.6077 32.009C76.8876 34.5849 80.0263 35.9171 83.0168 35.1937C85.4458 34.6061 87.8176 32.5941 87.6657 29.2774C87.596 27.746 87.6545 26.2096 87.6533 24.6758C87.6533 23.859 87.652 23.8578 86.8639 23.8578C85.04 23.8553 83.216 23.8566 81.3921 23.8566ZM38.8098 23.8566C36.9236 23.8566 35.0374 23.8715 33.1524 23.8454C32.6868 23.8391 32.5523 23.9711 32.5586 24.4367C32.5822 26.3229 32.5673 28.2092 32.5673 30.0941C32.5673 30.9233 32.8125 31.6877 33.2371 32.3887C34.9876 35.2796 39.0426 36.2644 42.1079 34.5438C43.8708 33.554 44.9752 32.0899 45.0548 30.0319C45.1271 28.1693 45.0536 26.3018 45.0785 24.4367C45.0847 23.9562 44.9166 23.8429 44.4672 23.8478C42.581 23.869 40.696 23.8566 38.8098 23.8566ZM67.403 23.8553C65.5168 23.8553 63.6306 23.8678 61.7444 23.8466C61.2725 23.8416 61.092 23.9549 61.0994 24.4654C61.1281 26.2893 61.1007 28.1133 61.1144 29.9372C61.1206 30.7328 61.3198 31.4898 61.6995 32.1957C63.2247 35.0294 67.1552 36.2308 70.203 34.7766C72.2648 33.7931 73.5758 32.2592 73.6144 29.8738C73.6443 28.0498 73.6069 26.2258 73.6293 24.4019C73.6343 23.9586 73.4887 23.8429 73.0616 23.8466C71.1754 23.8678 69.2892 23.8566 67.403 23.8553ZM24.5518 23.8566C22.6656 23.8566 20.7794 23.869 18.8932 23.8478C18.43 23.8429 18.242 23.9412 18.2508 24.4579C18.2831 26.2607 18.2632 28.0647 18.262 29.8675C18.262 31.0291 18.6405 32.06 19.3489 32.9726C21.1529 35.2983 24.7386 36.0889 27.4627 34.7293C29.6303 33.6474 30.8479 31.9604 30.7757 29.4417C30.7271 27.7647 30.7533 26.0839 30.7757 24.4044C30.7819 23.9649 30.64 23.8429 30.2104 23.8466C28.3242 23.8678 26.438 23.8566 24.5518 23.8566ZM24.8568 22.3202C26.702 22.3202 28.5458 22.3077 30.391 22.3302C30.813 22.3351 31.0122 22.2156 31.1305 21.796C32.1651 18.117 33.2134 14.4405 34.2779 10.7701C34.4049 10.3331 34.3626 10.18 33.8708 10.1837C31.6534 10.2012 29.4348 10.1962 27.2174 10.1862C26.9174 10.185 26.7231 10.2771 26.5526 10.5323C24.0364 14.3035 21.5102 18.0685 18.9878 21.8359C18.9106 21.9517 18.7562 22.0637 18.8172 22.2106C18.8994 22.4049 19.1073 22.319 19.2592 22.319C21.1255 22.3239 22.9906 22.3227 24.8568 22.3202ZM66.7207 22.3214C68.6069 22.3214 70.4931 22.3227 72.3806 22.3202C72.52 22.3202 72.6968 22.3787 72.784 22.2455C72.8823 22.0973 72.728 21.9816 72.6508 21.867C70.1259 18.1021 67.5972 14.3396 65.0773 10.5697C64.898 10.3008 64.71 10.1825 64.3751 10.185C62.1565 10.1999 59.9391 10.1999 57.7205 10.1875C57.2847 10.185 57.2013 10.2933 57.3283 10.7303C58.399 14.4218 59.4461 18.1195 60.4894 21.8185C60.5965 22.1957 60.7782 22.3364 61.1853 22.3314C63.0305 22.309 64.8756 22.3227 66.7207 22.3214ZM5.27638 22.2654C5.51542 22.3015 5.61129 22.3277 5.70716 22.3277C9.29656 22.3264 12.886 22.3177 16.4754 22.3302C16.8401 22.3314 16.9808 22.1285 17.1439 21.8857C19.3016 18.6648 21.4617 15.4464 23.6193 12.2268C24.0501 11.5831 24.4734 10.9345 24.9639 10.1912C22.9694 10.1912 21.1243 10.1999 19.2804 10.185C18.882 10.1812 18.5819 10.2933 18.2831 10.5635C15.7781 12.8331 13.2595 15.0891 10.7458 17.3488C8.95792 18.9549 7.17006 20.5622 5.27638 22.2654ZM86.1991 22.2928C86.0472 22.1285 85.9887 22.05 85.914 21.9878C81.3609 18.1319 76.8066 14.2798 72.2586 10.419C72.0494 10.241 71.839 10.1862 71.5813 10.1875C70.1308 10.1924 68.6791 10.1862 67.2287 10.1924C67.078 10.1937 66.8676 10.1115 66.7879 10.3032C66.7282 10.4477 66.8788 10.5647 66.9573 10.6817C69.4585 14.4156 71.9648 18.1444 74.4561 21.8844C74.6789 22.2181 74.9254 22.3326 75.3201 22.3314C78.7613 22.3202 82.2013 22.3289 85.6426 22.3302C85.7845 22.3302 85.9277 22.3115 86.1991 22.2928Z" fill="#4C4C4C"/>
<path d="M45.7408 90.1204C32.4415 90.1204 19.1422 90.0955 5.84287 90.1428C3.49476 90.1515 1.77911 88.3587 1.56746 86.4563C1.32344 84.2526 3.07145 82.0452 5.2851 81.9381C5.86528 81.9107 6.44795 81.9007 7.02688 81.9344C7.45517 81.9593 7.5859 81.7787 7.55478 81.3928C7.54482 81.2695 7.55353 81.1438 7.55353 81.0193C7.55353 66.4961 7.54979 51.9717 7.56722 37.4485C7.56847 36.7562 7.43525 36.3728 6.72434 36.0553C4.49326 35.0605 3.02538 33.3735 2.56846 30.9121C2.51617 30.6295 2.50123 30.3357 2.50123 30.0468C2.49625 27.8481 2.51119 25.6481 2.48878 23.4494C2.4838 22.9452 2.64938 22.6003 3.0204 22.2679C7.71538 18.0622 12.3954 13.8404 17.0941 9.6384C17.5162 9.26116 17.7042 8.88267 17.693 8.30747C17.6581 6.35777 17.678 4.40682 17.6818 2.45711C17.683 1.69889 17.8785 1.50093 18.6367 1.50093C36.397 1.49969 54.1572 1.49969 71.9174 1.50093C72.7827 1.50093 72.9409 1.65532 72.9433 2.50816C72.9496 4.47903 72.9583 6.4499 72.9408 8.42077C72.9371 8.8503 73.0591 9.14164 73.399 9.42799C78.3928 13.6374 83.3667 17.868 88.3629 22.0749C88.8971 22.5244 89.156 22.9863 89.1361 23.7109C89.0838 25.6183 89.0875 27.5281 89.1261 29.4367C89.1921 32.7273 87.5325 34.8601 84.6602 36.1748C84.2095 36.3815 84.0552 36.5969 84.0552 37.0837C84.0689 51.7737 84.0714 66.4625 84.0552 81.1525C84.0539 81.7837 84.2195 81.9767 84.852 81.9431C85.5915 81.9045 86.341 81.8534 87.0781 82.0564C88.9083 82.5606 90.228 84.3136 90.0387 86.2795C89.8159 88.6039 88.2223 90.1104 86.0758 90.1117C72.6296 90.1241 59.1846 90.1191 45.7408 90.1204ZM17.368 32.7024C17.129 33.0772 16.9597 33.3884 16.748 33.6661C14.9701 35.9955 12.5847 36.9891 9.69248 36.8235C9.23307 36.7973 9.04257 36.8646 9.04382 37.3962C9.05876 52.0439 9.05876 66.6915 9.04756 81.3392C9.04756 81.7937 9.15463 81.9505 9.63147 81.9418C11.2488 81.9144 12.8673 81.9331 14.4858 81.9331C36.8925 81.9331 59.3004 81.9331 81.7071 81.9381C82.2076 81.9381 82.5798 82.0028 82.5773 81.2396C82.5512 66.6542 82.5549 52.0688 82.5699 37.4833C82.5699 36.933 82.4416 36.7687 81.8814 36.8197C79.9254 36.9965 78.15 36.4637 76.5502 35.3369C75.6587 34.7094 74.9765 33.884 74.3901 32.9191C74.2805 33.071 74.2046 33.1668 74.1386 33.2677C70.9799 38.1382 63.5783 38.0747 60.5243 33.1407C60.2616 32.7149 60.1657 32.7771 59.9304 33.1506C57.5935 36.8658 52.5312 38.0075 48.775 35.6917C47.586 34.9597 46.6696 33.9773 45.9575 32.685C44.3253 35.4627 41.9398 36.8434 38.8111 36.8484C35.6711 36.8533 33.2894 35.4664 31.6659 32.7161C30.0399 35.4465 27.6669 36.8459 24.5257 36.8446C21.3845 36.8459 19.004 35.4602 17.368 32.7024ZM45.8156 88.6562C56.9971 88.6562 68.1786 88.6562 79.3614 88.6562C81.5601 88.6562 83.7601 88.6699 85.9588 88.6513C87.794 88.6363 89.0216 86.8422 88.4028 85.1191C88.0031 84.0061 87.0395 83.3997 85.6612 83.3997C60.6637 83.3997 35.6649 83.3997 10.6673 83.3997C9.02888 83.3997 7.38918 83.3972 5.75073 83.401C4.68624 83.4035 3.85955 83.8467 3.35905 84.7954C2.39291 86.6306 3.7089 88.6537 5.86154 88.6537C19.1783 88.6575 32.4976 88.6562 45.8156 88.6562ZM45.3088 8.72206C48.338 8.72206 51.3671 8.72206 54.3962 8.72206C59.8532 8.72206 65.3101 8.71335 70.7658 8.73451C71.3373 8.737 71.5053 8.57889 71.4892 8.00618C71.4481 6.59681 71.4755 5.18496 71.4755 3.77434C71.4755 2.97131 71.4742 2.97006 70.6724 2.97006C61.2738 2.97006 51.8751 2.97006 42.4764 2.97006C34.9241 2.97006 27.3718 2.97629 19.8195 2.95761C19.2692 2.95637 19.1123 3.09705 19.1285 3.64984C19.1683 5.05921 19.141 6.47106 19.1422 7.88167C19.1422 8.72455 19.1434 8.72455 19.9751 8.72455C28.4201 8.72331 36.8651 8.72331 45.3088 8.72206ZM52.7454 22.3239V22.3214C54.6751 22.3214 56.6049 22.3152 58.5335 22.3264C58.9443 22.3289 59.08 22.2492 58.9493 21.796C57.8736 18.0834 56.8191 14.3645 55.7645 10.6456C55.6724 10.3207 55.5155 10.1837 55.1545 10.185C52.4577 10.1999 49.7598 10.1999 47.0631 10.185C46.6472 10.1825 46.5352 10.3331 46.5364 10.729C46.5476 14.4006 46.5489 18.0734 46.5327 21.745C46.5302 22.2194 46.6896 22.3376 47.144 22.3314C49.0103 22.3102 50.8778 22.3239 52.7454 22.3239ZM38.7737 22.3202C40.6612 22.3202 42.5499 22.309 44.4373 22.3289C44.8967 22.3339 45.0872 22.243 45.0835 21.7201C45.0598 18.0896 45.0636 14.4591 45.0797 10.8286C45.0822 10.3568 44.9664 10.18 44.4572 10.185C41.8228 10.2099 39.1883 10.2061 36.5538 10.185C36.1181 10.1812 35.9425 10.3207 35.8267 10.7315C34.7971 14.3931 33.7588 18.0523 32.6893 21.7039C32.5299 22.248 32.6756 22.3339 33.1736 22.3289C35.0399 22.309 36.9062 22.3214 38.7737 22.3202ZM53.1139 23.8578C51.2065 23.8578 49.2991 23.8678 47.3918 23.8503C46.9697 23.8466 46.8103 23.9674 46.8153 24.4093C46.8365 26.2545 46.8178 28.0996 46.8315 29.9447C46.839 30.876 47.1079 31.7376 47.6071 32.5269C49.1609 34.9896 52.5237 36.0578 55.4719 34.951C57.7279 34.1043 59.2008 32.5381 59.3328 30.0418C59.4348 28.1195 59.3564 26.1872 59.3701 24.2587C59.3738 23.7943 59.0626 23.8553 58.775 23.8541C56.8875 23.8566 55.0013 23.8566 53.1139 23.8578ZM10.2652 23.8566C8.35781 23.8566 6.45044 23.8703 4.54431 23.8466C4.07868 23.8404 3.94296 23.9811 3.94919 24.4442C3.97284 26.2682 3.94421 28.0921 3.96413 29.9161C3.97533 30.932 4.27788 31.8745 4.86802 32.7099C6.52888 35.0605 9.74851 36.003 12.5896 34.9808C14.4995 34.2936 16.6509 32.4435 16.4828 29.4529C16.3894 27.7995 16.4492 26.1374 16.4754 24.4791C16.4828 24.0047 16.3683 23.8354 15.8616 23.8441C13.9965 23.874 12.1302 23.8553 10.2652 23.8566ZM81.3921 23.8566C79.4847 23.8566 77.5773 23.8665 75.6699 23.8491C75.2691 23.8454 75.1321 23.9599 75.1358 24.372C75.157 26.3205 75.1483 28.2689 75.152 30.2186C75.1533 30.8536 75.3288 31.4462 75.6077 32.009C76.8876 34.5849 80.0263 35.9171 83.0168 35.1937C85.4458 34.6061 87.8176 32.5941 87.6657 29.2774C87.596 27.746 87.6545 26.2096 87.6533 24.6758C87.6533 23.859 87.652 23.8578 86.8639 23.8578C85.04 23.8553 83.216 23.8566 81.3921 23.8566ZM38.8098 23.8566C36.9236 23.8566 35.0374 23.8715 33.1524 23.8454C32.6868 23.8391 32.5523 23.9711 32.5586 24.4367C32.5822 26.3229 32.5673 28.2092 32.5673 30.0941C32.5673 30.9233 32.8125 31.6877 33.2371 32.3887C34.9876 35.2796 39.0426 36.2644 42.1079 34.5438C43.8708 33.554 44.9752 32.0899 45.0548 30.0319C45.1271 28.1693 45.0536 26.3018 45.0785 24.4367C45.0847 23.9562 44.9166 23.8429 44.4672 23.8478C42.581 23.869 40.696 23.8566 38.8098 23.8566ZM67.403 23.8553C65.5168 23.8553 63.6306 23.8678 61.7444 23.8466C61.2725 23.8416 61.092 23.9549 61.0994 24.4654C61.1281 26.2893 61.1007 28.1133 61.1144 29.9372C61.1206 30.7328 61.3198 31.4898 61.6995 32.1957C63.2247 35.0294 67.1552 36.2308 70.203 34.7766C72.2648 33.7931 73.5758 32.2592 73.6144 29.8738C73.6443 28.0498 73.6069 26.2258 73.6293 24.4019C73.6343 23.9586 73.4887 23.8429 73.0616 23.8466C71.1754 23.8678 69.2892 23.8566 67.403 23.8553ZM24.5518 23.8566C22.6656 23.8566 20.7794 23.869 18.8932 23.8478C18.43 23.8429 18.242 23.9412 18.2508 24.4579C18.2831 26.2607 18.2632 28.0647 18.262 29.8675C18.262 31.0291 18.6405 32.06 19.3489 32.9726C21.1529 35.2983 24.7386 36.0889 27.4627 34.7293C29.6303 33.6474 30.8479 31.9604 30.7757 29.4417C30.7271 27.7647 30.7533 26.0839 30.7757 24.4044C30.7819 23.9649 30.64 23.8429 30.2104 23.8466C28.3242 23.8678 26.438 23.8566 24.5518 23.8566ZM24.8568 22.3202C26.702 22.3202 28.5458 22.3077 30.391 22.3302C30.813 22.3351 31.0122 22.2156 31.1305 21.796C32.1651 18.117 33.2134 14.4405 34.2779 10.7701C34.4049 10.3331 34.3626 10.18 33.8708 10.1837C31.6534 10.2012 29.4348 10.1962 27.2174 10.1862C26.9174 10.185 26.7231 10.2771 26.5526 10.5323C24.0364 14.3035 21.5102 18.0685 18.9878 21.8359C18.9106 21.9517 18.7562 22.0637 18.8172 22.2106C18.8994 22.4049 19.1073 22.319 19.2592 22.319C21.1255 22.3239 22.9906 22.3227 24.8568 22.3202ZM66.7207 22.3214C68.6069 22.3214 70.4931 22.3227 72.3806 22.3202C72.52 22.3202 72.6968 22.3787 72.784 22.2455C72.8823 22.0973 72.728 21.9816 72.6508 21.867C70.1259 18.1021 67.5972 14.3396 65.0773 10.5697C64.898 10.3008 64.71 10.1825 64.3751 10.185C62.1565 10.1999 59.9391 10.1999 57.7205 10.1875C57.2847 10.185 57.2013 10.2933 57.3283 10.7303C58.399 14.4218 59.4461 18.1195 60.4894 21.8185C60.5965 22.1957 60.7782 22.3364 61.1853 22.3314C63.0305 22.309 64.8756 22.3227 66.7207 22.3214ZM5.27638 22.2654C5.51542 22.3015 5.61129 22.3277 5.70716 22.3277C9.29656 22.3264 12.886 22.3177 16.4754 22.3302C16.8401 22.3314 16.9808 22.1285 17.1439 21.8857C19.3016 18.6648 21.4617 15.4464 23.6193 12.2268C24.0501 11.5831 24.4734 10.9345 24.9639 10.1912C22.9694 10.1912 21.1243 10.1999 19.2804 10.185C18.882 10.1812 18.5819 10.2933 18.2831 10.5635C15.7781 12.8331 13.2595 15.0891 10.7458 17.3488C8.95792 18.9549 7.17006 20.5622 5.27638 22.2654ZM86.1991 22.2928C86.0472 22.1285 85.9887 22.05 85.914 21.9878C81.3609 18.1319 76.8066 14.2798 72.2586 10.419C72.0494 10.241 71.839 10.1862 71.5813 10.1875C70.1308 10.1924 68.6791 10.1862 67.2287 10.1924C67.078 10.1937 66.8676 10.1115 66.7879 10.3032C66.7282 10.4477 66.8788 10.5647 66.9573 10.6817C69.4585 14.4156 71.9648 18.1444 74.4561 21.8844C74.6789 22.2181 74.9254 22.3326 75.3201 22.3314C78.7613 22.3202 82.2013 22.3289 85.6426 22.3302C85.7845 22.3302 85.9277 22.3115 86.1991 22.2928Z" stroke="#4C4C4C" stroke-width="1.6" mask="url(#path-1-outside-1_167_436)"/>
<path d="M16.2196 77.7111L16.2187 77.7111C15.9245 77.6963 15.649 77.603 15.443 77.3929C15.2393 77.1852 15.1514 76.912 15.1314 76.6318L16.2196 77.7111ZM16.2196 77.7111C16.4373 77.7216 16.6521 77.7216 16.8573 77.7216H16.8613H16.9177M16.2196 77.7111L16.9177 77.7216M45.7391 39.9053L45.7393 39.9052C45.9844 39.7689 46.2397 39.6959 46.5078 39.7068C46.7738 39.7175 47.0188 39.8093 47.2468 39.9476L47.2471 39.9478C50.3581 41.8388 53.4715 43.726 56.5886 45.6069C57.437 46.1185 58.2887 46.6252 59.1416 47.1326L59.1419 47.1327L59.1423 47.133C59.9948 47.6401 60.8485 48.148 61.6993 48.6609C61.8704 48.7641 62.0553 48.7902 62.3251 48.7903C66.5767 48.7828 70.8285 48.7753 75.0816 48.7716C75.0817 48.7716 75.0818 48.7716 75.0819 48.7716L75.0822 49.1716L45.7391 39.9053ZM45.7391 39.9053C45.0125 40.31 44.286 40.7148 43.5595 41.1196C39.5652 43.3451 35.5719 45.57 31.5687 47.7754C31.4211 47.8566 31.2788 47.9378 31.1401 48.0169C30.3745 48.4535 29.7169 48.8286 28.8577 48.8165C25.8676 48.7744 22.8767 48.7723 19.8888 48.7702C18.8937 48.7695 17.899 48.7688 16.9047 48.7666M45.7391 39.9053L16.9047 48.7666M16.9177 77.7216H16.9741M16.9177 77.7216H16.9741M16.9741 77.7216H17.0305M16.9741 77.7216H17.0305M17.0305 77.7216H17.0869M17.0305 77.7216H17.0869M17.0869 77.7216H17.1433M17.0869 77.7216H17.1433M17.1433 77.7216H17.1997M17.1433 77.7216H17.1997M17.1997 77.7216H17.2561M17.1997 77.7216H17.2561M17.2561 77.7216H17.3125M17.2561 77.7216H17.3125M17.3125 77.7216H17.3689M17.3125 77.7216H17.3689M17.3689 77.7216H17.4253M17.3689 77.7216H17.4253M17.4253 77.7216H17.4817M17.4253 77.7216H17.4817M17.4817 77.7216H17.5381M17.4817 77.7216H17.5381M17.5381 77.7216H17.5945M17.5381 77.7216H17.5945M17.5945 77.7216H17.6509M17.5945 77.7216H17.6509M17.6509 77.7216H17.7073M17.6509 77.7216H17.7073M17.7073 77.7216H17.7638M17.7073 77.7216H17.7638M17.7638 77.7216H17.8202M17.7638 77.7216H17.8202M17.8202 77.7216H17.8766M17.8202 77.7216H17.8766M17.8766 77.7216H17.933M17.8766 77.7216H17.933M17.933 77.7216H17.9894M17.933 77.7216H17.9894M17.9894 77.7216H18.0458M17.9894 77.7216H18.0458M18.0458 77.7216H18.1022M18.0458 77.7216H18.1022M18.1022 77.7216H18.1586M18.1022 77.7216H18.1586M18.1586 77.7216H18.215M18.1586 77.7216H18.215M18.215 77.7216H18.2714M18.215 77.7216H18.2714M18.2714 77.7216H18.3278M18.2714 77.7216H18.3278M18.3278 77.7216H18.3842M18.3278 77.7216H18.3842M18.3842 77.7216H18.4406M18.3842 77.7216H18.4406M18.4406 77.7216H18.497M18.4406 77.7216H18.497M18.497 77.7216H18.5534M18.497 77.7216H18.5534M18.5534 77.7216H18.6098M18.5534 77.7216H18.6098M18.6098 77.7216H18.6662M18.6098 77.7216H18.6662M18.6662 77.7216H18.7226M18.6662 77.7216H18.7226M18.7226 77.7216H18.779M18.7226 77.7216H18.779M18.779 77.7216H18.8354M18.779 77.7216H18.8354M18.8354 77.7216H18.8918M18.8354 77.7216H18.8918M18.8918 77.7216H18.9483M18.8918 77.7216H18.9483M18.9483 77.7216H19.0047M18.9483 77.7216H19.0047M19.0047 77.7216H19.0611M19.0047 77.7216H19.0611M19.0611 77.7216H19.1175M19.0611 77.7216H19.1175M19.1175 77.7216H19.1739M19.1175 77.7216H19.1739M19.1739 77.7216H19.2303M19.1739 77.7216H19.2303M19.2303 77.7216H19.2867M19.2303 77.7216H19.2867M19.2867 77.7216H19.3431M19.2867 77.7216H19.3431M19.3431 77.7216H19.3995M19.3431 77.7216H19.3995M19.3995 77.7216H19.4559M19.3995 77.7216H19.4559M19.4559 77.7216H19.5123M19.4559 77.7216H19.5123M19.5123 77.7216H19.5687M19.5123 77.7216H19.5687M19.5687 77.7216H19.6251M19.5687 77.7216H19.6251M19.6251 77.7216H19.6815M19.6251 77.7216H19.6815M19.6815 77.7216H19.7379M19.6815 77.7216H19.7379M19.7379 77.7216H19.7943M19.7379 77.7216H19.7943M19.7943 77.7216H19.8507M19.7943 77.7216H19.8507M19.8507 77.7216H19.9071M19.8507 77.7216H19.9071M19.9071 77.7216H19.9635M19.9071 77.7216H19.9635M19.9635 77.7216H20.0199M19.9635 77.7216H20.0199M20.0199 77.7216H20.0763M20.0199 77.7216H20.0763M20.0763 77.7216H20.1327M20.0763 77.7216H20.1327M20.1327 77.7216H20.1891M20.1327 77.7216H20.1891M20.1891 77.7216H20.2455M20.1891 77.7216H20.2455M20.2455 77.7216H20.3019M20.2455 77.7216H20.3019M20.3019 77.7216H20.3584M20.3019 77.7216H20.3584M20.3584 77.7216H20.4148M20.3584 77.7216H20.4148M20.4148 77.7216H20.4712M20.4148 77.7216H20.4712M20.4712 77.7216H20.5276M20.4712 77.7216H20.5276M20.5276 77.7216H20.584M20.5276 77.7216H20.584M20.584 77.7216H20.6404M20.584 77.7216H20.6404M20.6404 77.7216H20.6968M20.6404 77.7216H20.6968M20.6968 77.7216H20.7532M20.6968 77.7216H20.7532M20.7532 77.7216H20.8096M20.7532 77.7216H20.8096M20.8096 77.7216H20.866M20.8096 77.7216H20.866M20.866 77.7216H20.9224M20.866 77.7216H20.9224M20.9224 77.7216H20.9788M20.9224 77.7216H20.9788M20.9788 77.7216H21.0352M20.9788 77.7216H21.0352M21.0352 77.7216H21.0916M21.0352 77.7216H21.0916M21.0916 77.7216H21.148M21.0916 77.7216H21.148M21.148 77.7216H21.2044M21.148 77.7216H21.2044M21.2044 77.7216H21.2608M21.2044 77.7216H21.2608M21.2608 77.7216H21.3172M21.2608 77.7216H21.3172M21.3172 77.7216H21.3736M21.3172 77.7216H21.3736M21.3736 77.7216H21.43M21.3736 77.7216H21.43M21.43 77.7216H21.4864M21.43 77.7216H21.4864M21.4864 77.7216H21.5428M21.4864 77.7216H21.5428M21.5428 77.7216H21.5992M21.5428 77.7216H21.5992M21.5992 77.7216H21.6556M21.5992 77.7216H21.6556M21.6556 77.7216H21.712M21.6556 77.7216H21.712M21.712 77.7216H21.7684M21.712 77.7216H21.7684M21.7684 77.7216H21.8248M21.7684 77.7216H21.8248M21.8248 77.7216H21.8812M21.8248 77.7216H21.8812M21.8812 77.7216H21.9377M21.8812 77.7216H21.9377M21.9377 77.7216H21.9941M21.9377 77.7216H21.9941M21.9941 77.7216H22.0505M21.9941 77.7216H22.0505M22.0505 77.7216H22.1069M22.0505 77.7216H22.1069M22.1069 77.7216H22.1633M22.1069 77.7216H22.1633M22.1633 77.7216H22.2197M22.1633 77.7216H22.2197M22.2197 77.7216H22.2761M22.2197 77.7216H22.2761M22.2761 77.7216H22.3325M22.2761 77.7216H22.3325M22.3325 77.7216H22.3889M22.3325 77.7216H22.3889M22.3889 77.7216H22.4453M22.3889 77.7216H22.4453M22.4453 77.7216H22.5017M22.4453 77.7216H22.5017M22.5017 77.7216H22.5581M22.5017 77.7216H22.5581M22.5581 77.7216H22.6145M22.5581 77.7216H22.6145M22.6145 77.7216H22.6709M22.6145 77.7216H22.6709M22.6709 77.7216H22.7273M22.6709 77.7216H22.7273M22.7273 77.7216H22.7837M22.7273 77.7216H22.7837M22.7837 77.7216H22.8401M22.7837 77.7216H22.8401M22.8401 77.7216H22.8965M22.8401 77.7216H22.8965M22.8965 77.7216H22.9529M22.8965 77.7216H22.9529M22.9529 77.7216H23.0093M22.9529 77.7216H23.0093M23.0093 77.7216H23.0657M23.0093 77.7216H23.0657M23.0657 77.7216H23.1221M23.0657 77.7216H23.1221M23.1221 77.7216H23.1785M23.1221 77.7216H23.1785M23.1785 77.7216H23.2349M23.1785 77.7216H23.2349M23.2349 77.7216H23.2913M23.2349 77.7216H23.2913M23.2913 77.7216H23.3477M23.2913 77.7216H23.3477M23.3477 77.7216H23.4041M23.3477 77.7216H23.4041M23.4041 77.7216H23.4605M23.4041 77.7216H23.4605M23.4605 77.7216H23.5169M23.4605 77.7216H23.5169M23.5169 77.7216H23.5733M23.5169 77.7216H23.5733M23.5733 77.7216H23.6297M23.5733 77.7216H23.6297M23.6297 77.7216H23.6861M23.6297 77.7216H23.6861M23.6861 77.7216H23.7425M23.6861 77.7216H23.7425M23.7425 77.7216H23.7989M23.7425 77.7216H23.7989M23.7989 77.7216H23.8554M23.7989 77.7216H23.8554M23.8554 77.7216H23.9118M23.8554 77.7216H23.9118M23.9118 77.7216H23.9682M23.9118 77.7216H23.9682M23.9682 77.7216H24.0246M23.9682 77.7216H24.0246M24.0246 77.7216H24.081M24.0246 77.7216H24.081M24.081 77.7216H24.1374M24.081 77.7216H24.1374M24.1374 77.7216H24.1938M24.1374 77.7216H24.1938M24.1938 77.7216H24.2502M24.1938 77.7216H24.2502M24.2502 77.7216H24.3066M24.2502 77.7216H24.3066M24.3066 77.7216H24.363M24.3066 77.7216H24.363M24.363 77.7216H24.4194M24.363 77.7216H24.4194M24.4194 77.7216H24.4758M24.4194 77.7216H24.4758M24.4758 77.7216H24.5322M24.4758 77.7216H24.5322M24.5322 77.7216H24.5886M24.5322 77.7216H24.5886M24.5886 77.7216H24.645M24.5886 77.7216H24.645M24.645 77.7216H24.7014M24.645 77.7216H24.7014M24.7014 77.7216H24.7578M24.7014 77.7216H24.7578M24.7578 77.7216H24.8142M24.7578 77.7216H24.8142M24.8142 77.7216H24.8706M24.8142 77.7216H24.8706M24.8706 77.7216H24.927M24.8706 77.7216H24.927M24.927 77.7216H24.9834M24.927 77.7216H24.9834M24.9834 77.7216H25.0398M24.9834 77.7216H25.0398M25.0398 77.7216H25.0962M25.0398 77.7216H25.0962M25.0962 77.7216H25.1526M25.0962 77.7216H25.1526M25.1526 77.7216H25.209M25.1526 77.7216H25.209M25.209 77.7216H25.2654M25.209 77.7216H25.2654M25.2654 77.7216H25.3218M25.2654 77.7216H25.3218M25.3218 77.7216H25.3782M25.3218 77.7216H25.3782M25.3782 77.7216H25.4346M25.3782 77.7216H25.4346M25.4346 77.7216H25.491M25.4346 77.7216H25.491M25.491 77.7216H25.5474M25.491 77.7216H25.5474M25.5474 77.7216H25.6038M25.5474 77.7216H25.6038M25.6038 77.7216H25.6602M25.6038 77.7216H25.6602M25.6602 77.7216H25.7166M25.6602 77.7216H25.7166M25.7166 77.7216H25.773M25.7166 77.7216H25.773M25.773 77.7216H25.8294M25.773 77.7216H25.8294M25.8294 77.7216H25.8858M25.8294 77.7216H25.8858M25.8858 77.7216H25.9422M25.8858 77.7216H25.9422M25.9422 77.7216H25.9986M25.9422 77.7216H25.9986M25.9986 77.7216H26.055M25.9986 77.7216H26.055M26.055 77.7216H26.1114M26.055 77.7216H26.1114M26.1114 77.7216H26.1678M26.1114 77.7216H26.1678M26.1678 77.7216H26.2242M26.1678 77.7216H26.2242M26.2242 77.7216H26.2807M26.2242 77.7216H26.2807M26.2807 77.7216H26.3371M26.2807 77.7216H26.3371M26.3371 77.7216H26.3935M26.3371 77.7216H26.3935M26.3935 77.7216H26.4499M26.3935 77.7216H26.4499M26.4499 77.7216H26.5063M26.4499 77.7216H26.5063M26.5063 77.7216H26.5627M26.5063 77.7216H26.5627M26.5627 77.7216H26.6191M26.5627 77.7216H26.6191M26.6191 77.7216H26.6755M26.6191 77.7216H26.6755M26.6755 77.7216H26.7319M26.6755 77.7216H26.7319M26.7319 77.7216H26.7883M26.7319 77.7216H26.7883M26.7883 77.7216H26.8447M26.7883 77.7216H26.8447M26.8447 77.7216H26.9011M26.8447 77.7216H26.9011M26.9011 77.7216H26.9575M26.9011 77.7216H26.9575M26.9575 77.7216H27.0139M26.9575 77.7216H27.0139M27.0139 77.7216H27.0703M27.0139 77.7216H27.0703M27.0703 77.7216H27.1267M27.0703 77.7216H27.1267M27.1267 77.7216H27.1831M27.1267 77.7216H27.1831M27.1831 77.7216H27.2395M27.1831 77.7216H27.2395M27.2395 77.7216H27.2959M27.2395 77.7216H27.2959M27.2959 77.7216H27.3523M27.2959 77.7216H27.3523M27.3523 77.7216H27.4087M27.3523 77.7216H27.4087M27.4087 77.7216H27.4651M27.4087 77.7216H27.4651M27.4651 77.7216H27.5215M27.4651 77.7216H27.5215M27.5215 77.7216H27.5779M27.5215 77.7216H27.5779M27.5779 77.7216H27.6343M27.5779 77.7216H27.6343M27.6343 77.7216H27.6907M27.6343 77.7216H27.6907M27.6907 77.7216H27.7471M27.6907 77.7216H27.7471M27.7471 77.7216H27.8035M27.7471 77.7216H27.8035M27.8035 77.7216H27.8599M27.8035 77.7216H27.8599M27.8599 77.7216H27.9163M27.8599 77.7216H27.9163M27.9163 77.7216H27.9727M27.9163 77.7216H27.9727M27.9727 77.7216H28.0291M27.9727 77.7216H28.0291M28.0291 77.7216H28.0855M28.0291 77.7216H28.0855M28.0855 77.7216H28.1419M28.0855 77.7216H28.1419M28.1419 77.7216H28.1983M28.1419 77.7216H28.1983M28.1983 77.7216H28.2547M28.1983 77.7216H28.2547M28.2547 77.7216H28.3111M28.2547 77.7216H28.3111M28.3111 77.7216H28.3675M28.3111 77.7216H28.3675M28.3675 77.7216H28.4239M28.3675 77.7216H28.4239M28.4239 77.7216H28.4803M28.4239 77.7216H28.4803M28.4803 77.7216H28.5367M28.4803 77.7216H28.5367M28.5367 77.7216H28.5931M28.5367 77.7216H28.5931M28.5931 77.7216H28.6495M28.5931 77.7216H28.6495M28.6495 77.7216H28.7059M28.6495 77.7216H28.7059M28.7059 77.7216H28.7623M28.7059 77.7216H28.7623M28.7623 77.7216H28.8187M28.7623 77.7216H28.8187M28.8187 77.7216H28.8751M28.8187 77.7216H28.8751M28.8751 77.7216H28.9315M28.8751 77.7216H28.9315M28.9315 77.7216H28.9879M28.9315 77.7216H28.9879M28.9879 77.7216H29.0443M28.9879 77.7216H29.0443M29.0443 77.7216H29.1007M29.0443 77.7216H29.1007M29.1007 77.7216H29.1572M29.1007 77.7216H29.1572M29.1572 77.7216H29.2136M29.1572 77.7216H29.2136M29.2136 77.7216H29.27M29.2136 77.7216H29.27M29.27 77.7216H29.3264M29.27 77.7216H29.3264M29.3264 77.7216H29.3828M29.3264 77.7216H29.3828M29.3828 77.7216H29.4392M29.3828 77.7216H29.4392M29.4392 77.7216H29.4956M29.4392 77.7216H29.4956M29.4956 77.7216H29.552M29.4956 77.7216H29.552M29.552 77.7216H29.6084M29.552 77.7216H29.6084M29.6084 77.7216H29.6648M29.6084 77.7216H29.6648M29.6648 77.7216H29.7212M29.6648 77.7216H29.7212M29.7212 77.7216H29.7776M29.7212 77.7216H29.7776M29.7776 77.7216H29.834M29.7776 77.7216H29.834M29.834 77.7216H29.8904M29.834 77.7216H29.8904M29.8904 77.7216H29.9468M29.8904 77.7216H29.9468M29.9468 77.7216H30.0032M29.9468 77.7216H30.0032M30.0032 77.7216H30.0596M30.0032 77.7216H30.0596M30.0596 77.7216H30.116M30.0596 77.7216H30.116M30.116 77.7216H30.1724M30.116 77.7216H30.1724M30.1724 77.7216H30.2288M30.1724 77.7216H30.2288M30.2288 77.7216H30.2852M30.2288 77.7216H30.2852M30.2852 77.7216H30.3416M30.2852 77.7216H30.3416M30.3416 77.7216H30.398M30.3416 77.7216H30.398M30.398 77.7216H30.4544M30.398 77.7216H30.4544M30.4544 77.7216H30.5108M30.4544 77.7216H30.5108M30.5108 77.7216H30.5672M30.5108 77.7216H30.5672M30.5672 77.7216H30.6236M30.5672 77.7216H30.6236M30.6236 77.7216H30.68M30.6236 77.7216H30.68M30.68 77.7216H30.7364M30.68 77.7216H30.7364M30.7364 77.7216H30.7928M30.7364 77.7216H30.7928M30.7928 77.7216H30.8492M30.7928 77.7216H30.8492M30.8492 77.7216H30.9056M30.8492 77.7216H30.9056M30.9056 77.7216H30.962M30.9056 77.7216H30.962M30.962 77.7216H31.0184M30.962 77.7216H31.0184M31.0184 77.7216H31.0748M31.0184 77.7216H31.0748M31.0748 77.7216H31.1312M31.0748 77.7216H31.1312M31.1312 77.7216H31.1876M31.1312 77.7216H31.1876M31.1876 77.7216H31.244M31.1876 77.7216H31.244M31.244 77.7216H31.3004M31.244 77.7216H31.3004M31.3004 77.7216H31.3568M31.3004 77.7216H31.3568M31.3568 77.7216H31.4132M31.3568 77.7216H31.4132M31.4132 77.7216H31.4696M31.4132 77.7216H31.4696M31.4696 77.7216H31.526M31.4696 77.7216H31.526M31.526 77.7216H31.5824M31.526 77.7216H31.5824M31.5824 77.7216H31.6388M31.5824 77.7216H31.6388M31.6388 77.7216H31.6952M31.6388 77.7216H31.6952M31.6952 77.7216H31.7516M31.6952 77.7216H31.7516M31.7516 77.7216H31.808M31.7516 77.7216H31.808M31.808 77.7216H31.8644M31.808 77.7216H31.8644M31.8644 77.7216H31.9208M31.8644 77.7216H31.9208M31.9208 77.7216H31.9772M31.9208 77.7216H31.9772M31.9772 77.7216H32.0336M31.9772 77.7216H32.0336M32.0336 77.7216H32.09M32.0336 77.7216H32.09M32.09 77.7216H32.1464M32.09 77.7216H32.1464M32.1464 77.7216H32.2028M32.1464 77.7216H32.2028M32.2028 77.7216H32.2592M32.2028 77.7216H32.2592M32.2592 77.7216H32.3156M32.2592 77.7216H32.3156M32.3156 77.7216H32.372M32.3156 77.7216H32.372M32.372 77.7216H32.4284M32.372 77.7216H32.4284M32.4284 77.7216H32.4849M32.4284 77.7216H32.4849M32.4849 77.7216H32.5413M32.4849 77.7216H32.5413M32.5413 77.7216H32.5977M32.5413 77.7216H32.5977M32.5977 77.7216H32.6541M32.5977 77.7216H32.6541M32.6541 77.7216H32.7105M32.6541 77.7216H32.7105M32.7105 77.7216H32.7669M32.7105 77.7216H32.7669M32.7669 77.7216H32.8233M32.7669 77.7216H32.8233M32.8233 77.7216H32.8797M32.8233 77.7216H32.8797M32.8797 77.7216H32.9361M32.8797 77.7216H32.9361M32.9361 77.7216H32.9925M32.9361 77.7216H32.9925M32.9925 77.7216H33.0489M32.9925 77.7216H33.0489M33.0489 77.7216H33.1053M33.0489 77.7216H33.1053M33.1053 77.7216H33.1617M33.1053 77.7216H33.1617M33.1617 77.7216H33.2181M33.1617 77.7216H33.2181M33.2181 77.7216H33.2745M33.2181 77.7216H33.2745M33.2745 77.7216H33.3309M33.2745 77.7216H33.3309M33.3309 77.7216H33.3873M33.3309 77.7216H33.3873M33.3873 77.7216H33.4437M33.3873 77.7216H33.4437M33.4437 77.7216H33.5001M33.4437 77.7216H33.5001M33.5001 77.7216H33.5565M33.5001 77.7216H33.5565M33.5565 77.7216H33.6129M33.5565 77.7216H33.6129M33.6129 77.7216H33.6693M33.6129 77.7216H33.6693M33.6693 77.7216H33.7257M33.6693 77.7216H33.7257M33.7257 77.7216H33.7821M33.7257 77.7216H33.7821M33.7821 77.7216H33.8385M33.7821 77.7216H33.8385M33.8385 77.7216H33.8949M33.8385 77.7216H33.8949M33.8949 77.7216H33.9513M33.8949 77.7216H33.9513M33.9513 77.7216H34.0077M33.9513 77.7216H34.0077M34.0077 77.7216H34.0641M34.0077 77.7216H34.0641M34.0641 77.7216H34.1205M34.0641 77.7216H34.1205M34.1205 77.7216H34.1769M34.1205 77.7216H34.1769M34.1769 77.7216H34.2333M34.1769 77.7216H34.2333M34.2333 77.7216H34.2897M34.2333 77.7216H34.2897M34.2897 77.7216H34.3461M34.2897 77.7216H34.3461M34.3461 77.7216H34.4025M34.3461 77.7216H34.4025M34.4025 77.7216H34.4589M34.4025 77.7216H34.4589M34.4589 77.7216H34.5153M34.4589 77.7216H34.5153M34.5153 77.7216H34.5717M34.5153 77.7216H34.5717M34.5717 77.7216H34.6281M34.5717 77.7216H34.6281M34.6281 77.7216H34.6845M34.6281 77.7216H34.6845M34.6845 77.7216H34.7409M34.6845 77.7216H34.7409M34.7409 77.7216H34.7973M34.7409 77.7216H34.7973M34.7973 77.7216H34.8537M34.7973 77.7216H34.8537M34.8537 77.7216H34.9101M34.8537 77.7216H34.9101M34.9101 77.7216H34.9665M34.9101 77.7216H34.9665M34.9665 77.7216H35.0229M34.9665 77.7216H35.0229M35.0229 77.7216H35.0793M35.0229 77.7216H35.0793M35.0793 77.7216H35.1357M35.0793 77.7216H35.1357M35.1357 77.7216H35.1921M35.1357 77.7216H35.1921M35.1921 77.7216H35.2485M35.1921 77.7216H35.2485M35.2485 77.7216H35.3049M35.2485 77.7216H35.3049M35.3049 77.7216H35.3613M35.3049 77.7216H35.3613M35.3613 77.7216H35.4177M35.3613 77.7216H35.4177M35.4177 77.7216H35.4741M35.4177 77.7216H35.4741M35.4741 77.7216H35.5306M35.4741 77.7216H35.5306M35.5306 77.7216H35.587M35.5306 77.7216H35.587M35.587 77.7216H35.6434M35.587 77.7216H35.6434M35.6434 77.7216H35.6998M35.6434 77.7216H35.6998M35.6998 77.7216H35.7562M35.6998 77.7216H35.7562M35.7562 77.7216H35.8126M35.7562 77.7216H35.8126M35.8126 77.7216H35.869M35.8126 77.7216H35.869M35.869 77.7216H35.9254M35.869 77.7216H35.9254M35.9254 77.7216H35.9818M35.9254 77.7216H35.9818M35.9818 77.7216H36.0382M35.9818 77.7216H36.0382M36.0382 77.7216H36.0946M36.0382 77.7216H36.0946M36.0946 77.7216H36.151M36.0946 77.7216H36.151M36.151 77.7216H36.2074M36.151 77.7216H36.2074M36.2074 77.7216H36.2638M36.2074 77.7216H36.2638M36.2638 77.7216H36.3202M36.2638 77.7216H36.3202M36.3202 77.7216H36.3766M36.3202 77.7216H36.3766M36.3766 77.7216H36.433M36.3766 77.7216H36.433M36.433 77.7216H36.4894M36.433 77.7216H36.4894M36.4894 77.7216H36.5458M36.4894 77.7216H36.5458M36.5458 77.7216H36.6022M36.5458 77.7216H36.6022M36.6022 77.7216H36.6586M36.6022 77.7216H36.6586M36.6586 77.7216H36.715M36.6586 77.7216H36.715M36.715 77.7216H36.7714M36.715 77.7216H36.7714M36.7714 77.7216H36.8278M36.7714 77.7216H36.8278M36.8278 77.7216H36.8842M36.8278 77.7216H36.8842M36.8842 77.7216H36.9406M36.8842 77.7216H36.9406M36.9406 77.7216H36.997M36.9406 77.7216H36.997M36.997 77.7216H37.0534M36.997 77.7216H37.0534M37.0534 77.7216H37.1098M37.0534 77.7216H37.1098M37.1098 77.7216H37.1662M37.1098 77.7216H37.1662M37.1662 77.7216H37.2226M37.1662 77.7216H37.2226M37.2226 77.7216H37.279M37.2226 77.7216H37.279M37.279 77.7216H37.3354M37.279 77.7216H37.3354M37.3354 77.7216H37.3918M37.3354 77.7216H37.3918M37.3918 77.7216H37.4482M37.3918 77.7216H37.4482M37.4482 77.7216H37.5046M37.4482 77.7216H37.5046M37.5046 77.7216H37.561M37.5046 77.7216H37.561M37.561 77.7216H37.6174M37.561 77.7216H37.6174M37.6174 77.7216H37.6738M37.6174 77.7216H37.6738M37.6738 77.7216H37.7302M37.6738 77.7216H37.7302M37.7302 77.7216H37.7866M37.7302 77.7216H37.7866M37.7866 77.7216H37.843M37.7866 77.7216H37.843M37.843 77.7216H37.8994M37.843 77.7216H37.8994M37.8994 77.7216H37.9558M37.8994 77.7216H37.9558M37.9558 77.7216H38.0122M37.9558 77.7216H38.0122M38.0122 77.7216H38.0686M38.0122 77.7216H38.0686M38.0686 77.7216H38.1251M38.0686 77.7216H38.1251M38.1251 77.7216H38.1815M38.1251 77.7216H38.1815M38.1815 77.7216H38.2379M38.1815 77.7216H38.2379M38.2379 77.7216H38.2943M38.2379 77.7216H38.2943M38.2943 77.7216H38.3507M38.2943 77.7216H38.3507M38.3507 77.7216H38.4071M38.3507 77.7216H38.4071M38.4071 77.7216H38.4635M38.4071 77.7216H38.4635M38.4635 77.7216H38.5199M38.4635 77.7216H38.5199M38.5199 77.7216H38.5763M38.5199 77.7216H38.5763M38.5763 77.7216H38.6327M38.5763 77.7216H38.6327M38.6327 77.7216H38.6891M38.6327 77.7216H38.6891M38.6891 77.7216H38.7455M38.6891 77.7216H38.7455M38.7455 77.7216H38.8019M38.7455 77.7216H38.8019M38.8019 77.7216H38.8583M38.8019 77.7216H38.8583M38.8583 77.7216H38.9147M38.8583 77.7216H38.9147M38.9147 77.7216H38.9711M38.9147 77.7216H38.9711M38.9711 77.7216H39.0275M38.9711 77.7216H39.0275M39.0275 77.7216H39.0839M39.0275 77.7216H39.0839M39.0839 77.7216H39.1403M39.0839 77.7216H39.1403M39.1403 77.7216H39.1967M39.1403 77.7216H39.1967M39.1967 77.7216H39.2531M39.1967 77.7216H39.2531M39.2531 77.7216H39.3095M39.2531 77.7216H39.3095M39.3095 77.7216H39.3659M39.3095 77.7216H39.3659M39.3659 77.7216H39.4223M39.3659 77.7216H39.4223M39.4223 77.7216H39.4787M39.4223 77.7216H39.4787M39.4787 77.7216H39.5351M39.4787 77.7216H39.5351M39.5351 77.7216H39.5915M39.5351 77.7216H39.5915M39.5915 77.7216H39.6479M39.5915 77.7216H39.6479M39.6479 77.7216H39.7043M39.6479 77.7216H39.7043M39.7043 77.7216H39.7607M39.7043 77.7216H39.7607M39.7607 77.7216H39.8171M39.7607 77.7216H39.8171M39.8171 77.7216H39.8735M39.8171 77.7216H39.8735M39.8735 77.7216H39.9299M39.8735 77.7216H39.9299M39.9299 77.7216H39.9863M39.9299 77.7216H39.9863M39.9863 77.7216H40.0427M39.9863 77.7216H40.0427M40.0427 77.7216H40.0991M40.0427 77.7216H40.0991M40.0991 77.7216H40.1556M40.0991 77.7216H40.1556M40.1556 77.7216H40.212M40.1556 77.7216H40.212M40.212 77.7216H40.2684M40.212 77.7216H40.2684M40.2684 77.7216H40.3248M40.2684 77.7216H40.3248M40.3248 77.7216H40.3812M40.3248 77.7216H40.3812M40.3812 77.7216H40.4376M40.3812 77.7216H40.4376M40.4376 77.7216H40.494M40.4376 77.7216H40.494M40.494 77.7216H40.5504M40.494 77.7216H40.5504M40.5504 77.7216H40.6068M40.5504 77.7216H40.6068M40.6068 77.7216H40.6632M40.6068 77.7216H40.6632M40.6632 77.7216H40.7196M40.6632 77.7216H40.7196M40.7196 77.7216H40.776M40.7196 77.7216H40.776M40.776 77.7216H40.8324M40.776 77.7216H40.8324M40.8324 77.7216H40.8888M40.8324 77.7216H40.8888M40.8888 77.7216H40.9452M40.8888 77.7216H40.9452M40.9452 77.7216H41.0016M40.9452 77.7216H41.0016M41.0016 77.7216H41.058M41.0016 77.7216H41.058M41.058 77.7216H41.1144M41.058 77.7216H41.1144M41.1144 77.7216H41.1708M41.1144 77.7216H41.1708M41.1708 77.7216H41.2272M41.1708 77.7216H41.2272M41.2272 77.7216H41.2836M41.2272 77.7216H41.2836M41.2836 77.7216H41.34M41.2836 77.7216H41.34M41.34 77.7216H41.3964M41.34 77.7216H41.3964M41.3964 77.7216H41.4528M41.3964 77.7216H41.4528M41.4528 77.7216H41.5092M41.4528 77.7216H41.5092M41.5092 77.7216H41.5656M41.5092 77.7216H41.5656M41.5656 77.7216H41.622M41.5656 77.7216H41.622M41.622 77.7216H41.6784M41.622 77.7216H41.6784M41.6784 77.7216H41.7348M41.6784 77.7216H41.7348M41.7348 77.7216H41.7912M41.7348 77.7216H41.7912M41.7912 77.7216H41.8477M41.7912 77.7216H41.8477M41.8477 77.7216H41.9041M41.8477 77.7216H41.9041M41.9041 77.7216H41.9605M41.9041 77.7216H41.9605M41.9605 77.7216H42.0169M41.9605 77.7216H42.0169M42.0169 77.7216H42.0733M42.0169 77.7216H42.0733M42.0733 77.7216H42.1297M42.0733 77.7216H42.1297M42.1297 77.7216H42.1861M42.1297 77.7216H42.1861M42.1861 77.7216H42.2425M42.1861 77.7216H42.2425M42.2425 77.7216H42.2989M42.2425 77.7216H42.2989M42.2989 77.7216H42.3553M42.2989 77.7216H42.3553M42.3553 77.7216H42.4117M42.3553 77.7216H42.4117M42.4117 77.7216H42.4681M42.4117 77.7216H42.4681M42.4681 77.7216H42.5245M42.4681 77.7216H42.5245M42.5245 77.7216H42.5809M42.5245 77.7216H42.5809M42.5809 77.7216H42.6373M42.5809 77.7216H42.6373M42.6373 77.7216H42.6937M42.6373 77.7216H42.6937M42.6937 77.7216H42.7501M42.6937 77.7216H42.7501M42.7501 77.7216H42.8065M42.7501 77.7216H42.8065M42.8065 77.7216H42.8629M42.8065 77.7216H42.8629M42.8629 77.7216H42.9193M42.8629 77.7216H42.9193M42.9193 77.7216H42.9757M42.9193 77.7216H42.9757M42.9757 77.7216H43.0321M42.9757 77.7216H43.0321M43.0321 77.7216H43.0885M43.0321 77.7216H43.0885M43.0885 77.7216H43.1449M43.0885 77.7216H43.1449M43.1449 77.7216H43.2013M43.1449 77.7216H43.2013M43.2013 77.7216H43.2577M43.2013 77.7216H43.2577M43.2577 77.7216H43.3142M43.2577 77.7216H43.3142M43.3142 77.7216H43.3706M43.3142 77.7216H43.3706M43.3706 77.7216H43.427M43.3706 77.7216H43.427M43.427 77.7216H43.4834M43.427 77.7216H43.4834M43.4834 77.7216H43.5398M43.4834 77.7216H43.5398M43.5398 77.7216H43.5962M43.5398 77.7216H43.5962M43.5962 77.7216H43.6526M43.5962 77.7216H43.6526M43.6526 77.7216H43.709M43.6526 77.7216H43.709M43.709 77.7216H43.7654M43.709 77.7216H43.7654M43.7654 77.7216H43.8218M43.7654 77.7216H43.8218M43.8218 77.7216H43.8782M43.8218 77.7216H43.8782M43.8782 77.7216H43.9346M43.8782 77.7216H43.9346M43.9346 77.7216H43.991M43.9346 77.7216H43.991M43.991 77.7216H44.0474M43.991 77.7216H44.0474M44.0474 77.7216H44.1038M44.0474 77.7216H44.1038M44.1038 77.7216H44.1602M44.1038 77.7216H44.1602M44.1602 77.7216H44.2166M44.1602 77.7216H44.2166M44.2166 77.7216H44.273M44.2166 77.7216H44.273M44.273 77.7216H44.3294M44.273 77.7216H44.3294M44.3294 77.7216H44.3858M44.3294 77.7216H44.3858M44.3858 77.7216H44.4422M44.3858 77.7216H44.4422M44.4422 77.7216H44.4986M44.4422 77.7216H44.4986M44.4986 77.7216H44.5551M44.4986 77.7216H44.5551M44.5551 77.7216H44.6115M44.5551 77.7216H44.6115M44.6115 77.7216H44.6679M44.6115 77.7216H44.6679M44.6679 77.7216H44.7243M44.6679 77.7216H44.7243M44.7243 77.7216H44.7807M44.7243 77.7216H44.7807M44.7807 77.7216H44.8371M44.7807 77.7216H44.8371M44.8371 77.7216H44.8935M44.8371 77.7216H44.8935M44.8935 77.7216H44.9499M44.8935 77.7216H44.9499M44.9499 77.7216H45.0063M44.9499 77.7216H45.0063M45.0063 77.7216H45.0627M45.0063 77.7216H45.0627M45.0627 77.7216H45.1191M45.0627 77.7216H45.1191M45.1191 77.7216H45.1755M45.1191 77.7216H45.1755M45.1755 77.7216H45.2319M45.1755 77.7216H45.2319M45.2319 77.7216H45.2883M45.2319 77.7216H45.2883M45.2883 77.7216H45.3447M45.2883 77.7216H45.3447M45.3447 77.7216H45.4011M45.3447 77.7216H45.4011M45.4011 77.7216H45.4575M45.4011 77.7216H45.4575M45.4575 77.7216H45.5139M45.4575 77.7216H45.5139M45.5139 77.7216H45.5703M45.5139 77.7216H45.5703M45.5703 77.7216H45.6267M45.5703 77.7216H45.6267M45.6267 77.7216H45.6832M45.6267 77.7216H45.6832M45.6832 77.7216H45.7396M45.6832 77.7216H45.7396M45.7396 77.7216C55.4906 77.7216 65.2416 77.7216 74.9901 77.7203C75.2206 77.7203 75.4305 77.7104 75.6123 77.6757C75.7959 77.6407 75.9797 77.5752 76.1327 77.4428C76.4447 77.1726 76.482 76.754 76.482 76.3631M45.7396 77.7216L76.482 76.3631M15.1178 76.0569C15.1178 76.0311 15.1179 76.0057 15.1179 75.9807C15.1179 73.1525 15.1177 70.3243 15.1176 67.496C15.1173 61.8393 15.1171 56.1823 15.1179 50.5249M15.1178 76.0569L15.1179 50.5249M15.1178 76.0569C15.1175 76.2374 15.1172 76.435 15.1314 76.6316L15.1178 76.0569ZM15.1179 50.5249C15.1179 50.2072 15.1216 49.9321 15.1536 49.7108M15.1179 50.5249L15.1536 49.7108M16.9047 48.7666C16.5805 48.7657 16.3016 48.7688 16.0778 48.7996M16.9047 48.7666L16.0778 48.7996M16.0778 48.7996C15.8537 48.8305 15.6192 48.8968 15.4374 49.0753M16.0778 48.7996L15.4374 49.0753M15.4374 49.0753C15.2547 49.2548 15.1858 49.4881 15.1536 49.7108M15.4374 49.0753L15.1536 49.7108M76.482 76.3631C76.487 67.6292 76.4882 58.8952 76.4845 50.1612L76.482 76.3631ZM17.8004 51.0357H17.8005C25.4552 51.05 33.1107 51.0493 40.7659 51.0485C42.467 51.0484 44.168 51.0482 45.869 51.0482H45.8691C47.9862 51.0479 50.1033 51.048 52.2204 51.048C59.4182 51.0481 66.6162 51.0483 73.8155 51.0357L73.8157 51.0357C73.9578 51.0354 74.0512 51.042 74.1153 51.0544C74.1492 51.061 74.1667 51.0677 74.1742 51.0712C74.1831 51.0881 74.2138 51.1637 74.2129 51.3987V51.3988C74.1855 59.3032 74.188 67.2087 74.2104 75.1128C74.2107 75.2523 74.2002 75.3367 74.1871 75.3872C74.1827 75.4038 74.1788 75.414 74.1762 75.4198C74.169 75.423 74.1547 75.4282 74.1299 75.4335C74.0721 75.4459 73.9844 75.4537 73.8475 75.4537C57.3767 75.4394 40.9048 75.4396 24.4339 75.4399C22.2342 75.4399 20.0345 75.44 17.8349 75.44C17.6381 75.44 17.5148 75.4394 17.4279 75.4318C17.4212 75.3511 17.4206 75.2365 17.4206 75.0544C17.4206 73.5215 17.421 71.9884 17.4213 70.4553C17.4227 64.1058 17.424 57.7547 17.402 51.4038L17.402 51.4037C17.401 51.1626 17.4334 51.0879 17.4419 51.0724C17.449 51.0689 17.4664 51.0618 17.5016 51.0549C17.5654 51.0422 17.6586 51.0354 17.8004 51.0357ZM74.1824 75.4166C74.1824 75.4167 74.1821 75.4169 74.1815 75.4172L74.1824 75.4166ZM17.4379 51.0747C17.4379 51.0747 17.4381 51.0745 17.4386 51.0742L17.4379 51.0747ZM57.428 48.7613C53.0602 48.7667 48.6933 48.7679 44.3252 48.7679C41.0521 48.7679 37.7778 48.7668 34.5035 48.7646C35.291 48.3281 36.0616 47.9001 36.8321 47.4723L36.8323 47.4722C36.8323 47.4722 36.8324 47.4721 36.8324 47.4721C37.6115 47.0405 38.3913 46.6094 39.1712 46.1782C41.4719 44.9062 43.7742 43.6333 46.0664 42.3439L46.0665 42.3438C46.2455 42.2431 46.3605 42.2211 46.45 42.2258C46.5445 42.2306 46.663 42.2677 46.8454 42.3782C49.7403 44.1367 52.6437 45.8832 55.5457 47.6289C56.1732 48.0064 56.8007 48.3838 57.428 48.7613Z" fill="#4C4C4C" stroke="#4C4C4C" stroke-width="0.8"/>
</svg>
